<svg id="regular" enable-background="new 0 0 24 24" height="512" viewBox="0 0 24 24" width="512" xmlns="http://www.w3.org/2000/svg"><path d="m.574 14.731c-.543 1.665-1.056 3.237.222 4.847 1.147 1.447 3.254 1.872 5.013 1.01 1.082-.53 1.739-2.266 3.05-5.726.585-1.545 1.313-3.468 2.202-5.582.041-.08.189-.126.29-.093.181.057.132.457.117.577-.067.383-.965 2.619-1.501 3.955-.9 2.244-1.032 2.599-1.05 2.826-.155 1.176.425 2.128 1.487 2.432 1.078.31 2.583-.153 3.273-1.615.187-.261.454-.805 1.159-2.275.801-1.669 2.549-5.311 3.483-6.452-.222.77-.936 2.17-1.442 3.166-.683 1.338-1.455 2.855-1.942 4.306-.47 2.308 1.037 4.545 2.703 5.295.805.362 2.045.67 3.206.67.787 0 1.538-.142 2.091-.504.695-.279 1.108-.936 1.062-1.706-.155-2.516-3.665-1.589-3.975-2.344-.32-.776.692-3.069 1.506-4.911 1.365-3.089 2.776-6.284 1.561-8.253-.574-.93-1.648-1.44-3.231-1.517-.982 0-1.651.416-1.603.438-.078-.025-.302-.167-.465-.271-.632-.401-1.582-1.004-2.81-1.004-.015 0-.03 0-.046 0-1.183.015-2.084.789-2.809 1.41-.253.218-.634.545-.786.587-.166 0-.553-.211-.864-.381-.945-.515-2.372-1.293-4.27-.55-2.315.908-2.822 2.56-4.501 8.032-.96 3.139-1.08 3.475-1.13 3.633zm2.566-3.192c1.66-5.413 2.022-6.452 3.613-7.076 1.245-.487 2.14-.001 3.004.47.562.306 1.077.601 1.681.562.605-.035 1.12-.478 1.666-.946.568-.488 1.212-1.041 1.85-1.048h.027c.791 0 1.464.427 2.006.771.395.25.707.448 1.062.487.446.052.762-.108.989-.224.208-.105.387-.197.783-.198 1.023.05 1.693.321 1.992.805.801 1.298-.562 4.382-1.656 6.859-1.118 2.533-2.085 4.72-1.521 6.088.192.468.553.816 1.04 1.008.713.28 1.217.306 1.622.328 2.885.151.183 2.063-3.043.61-1.145-.515-2.16-2.095-1.873-3.536.428-1.257 1.175-2.722 1.833-4.016 1.358-2.665 2.04-4.099 1.47-5.03-.138-.225-.476-.601-1.191-.601-1.086 0-2.115 1.56-5.007 7.587-1.187 2.474-1.121 2.187-1.141 2.231-.349.799-1.105.99-1.528.865-.34-.097-.474-.361-.41-.808.076-.265.562-1.473.953-2.449 1.228-3.06 1.56-3.956 1.6-4.363.174-1.265-.511-1.952-1.153-2.156-.812-.26-1.705.103-2.104.89-.922 2.189-1.656 4.126-2.245 5.683-.904 2.387-1.759 4.641-2.308 4.91-1.13.553-2.465.302-3.177-.596-.744-.937-.516-1.781.029-3.449.085-.28.103-.288 1.137-3.658z"/></svg>